PathFileType	4	(X/Y/Z)	E:\Qualisys_Data\Carbon_Farble_Plate\Data\Amateur_Runner\S1\T2\S1T2V12_c3d.trc
DataRate	CameraRate	NumFrames	NumMarkers	Units	OrigDataRate	OrigDataStartFrame	OrigNumFrames
200.000000	200.000000	4	39	mm	200.000000	273	312
Frame#	Time	LSHO			RSHO			LICST			RICST			LASIS			LHEEL			RASIS			LTROC			RTROC			SACR			LTH1			LSK4			LTH2			LTH3			RHM5			LSK2			LTH4			RTH1			LTOE			RTH2			RTH3			RTH4			LLEP			RLEP			LSK1			LSK3			RSK1			LHM5			RSK2			LFT1			RSK3			RSK4			LLME			RLME			RTOE			RHEEL			RFT1			RFT2			LFT2			
		X1	Y1	Z1	X2	Y2	Z2	X3	Y3	Z3	X4	Y4	Z4	X5	Y5	Z5	X6	Y6	Z6	X7	Y7	Z7	X8	Y8	Z8	X9	Y9	Z9	X10	Y10	Z10	X11	Y11	Z11	X12	Y12	Z12	X13	Y13	Z13	X14	Y14	Z14	X15	Y15	Z15	X16	Y16	Z16	X17	Y17	Z17	X18	Y18	Z18	X19	Y19	Z19	X20	Y20	Z20	X21	Y21	Z21	X22	Y22	Z22	X23	Y23	Z23	X24	Y24	Z24	X25	Y25	Z25	X26	Y26	Z26	X27	Y27	Z27	X28	Y28	Z28	X29	Y29	Z29	X30	Y30	Z30	X31	Y31	Z31	X32	Y32	Z32	X33	Y33	Z33	X34	Y34	Z34	X35	Y35	Z35	X36	Y36	Z36	X37	Y37	Z37	X38	Y38	Z38	X39	Y39	Z39	

274	1.365	2163.37548828125	1521.027709960938	-546.0695190429688	2078.841552734375	1528.579833984375	-230.1300811767578	2097.2099609375	1049.122314453125	-514.1917724609375	2083.954345703125	1086.846801757812	-218.9346618652344	2138.790283203125	1008.905517578125	-486.4059143066406	1623.486694335938	198.1891021728516	-388.0648193359375	2121.766357421875	1038.59130859375	-225.215087890625	2013.229736328125	940.245849609375	-526.3067626953125	2029.708129882812	948.6871337890624	-185.9264221191406	1972.450439453125	1087.248413085938	-368.4536743164062	2091.285400390625	765.7637329101562	-490.3756713867188	1723.806640625	330.6525268554688	-429.1937866210938	2014.963500976562	782.0812377929688	-524.4849853515625	2058.48779296875	670.7413330078125	-469.5726318359375	2262.96826171875	136.3287506103516	-206.4056854248047	1781.335571289062	406.5173645019531	-470.6938781738281	1979.667114257812	691.4171142578125	-496.8978576660156	2203.830322265625	887.4100341796875	-214.1802673339844	1822.096435546875	50.15686416625977	-392.3814697265625	2142.91357421875	844.097412109375	-183.4718627929688	2261.948974609375	802.9263305664062	-215.5577545166016	2195.61865234375	759.6555786132812	-194.7238616943359	1955.065185546875	540.3739013671875	-454.8540649414062	2293.909912109375	623.0925903320312	-228.5959777832031	1848.6591796875	355.8769226074219	-458.6030578613281	1782.852661132812	278.6407775878906	-452.4719848632812	2243.38134765625	437.4853515625	-212.2764129638672	1750.251953125	58.11425399780273	-460.445556640625	2167.67041015625	461.6207580566406	-232.986328125	1615.007202148438	169.4019775390625	-363.4093322753906	2217.50146484375	341.1887512207031	-227.3046264648438	2144.3017578125	365.7938537597656	-254.6456146240234	1688.685424804688	199.5837860107422	-442.8249816894531	2149.222412109375	223.176513671875	-233.6231536865234	2332.8125	146.9052581787109	-274.5572814941406	2083.317138671875	194.7849884033203	-283.2472534179688	2094.44287109375	162.7801208496094	-312.9266052246094	2081.0576171875	164.4615631103516	-259.4059753417969	1607.838500976562	168.0600280761719	-415.7829895019531
275	1.37	2179.24853515625	1525.075439453125	-545.240966796875	2093.929931640625	1532.151489257812	-229.8903503417969	2115.260009765625	1052.568969726562	-514.1482543945312	2102.095458984375	1090.499389648438	-218.8132019042969	2156.78857421875	1012.087524414062	-485.8619079589844	1635.125122070312	208.1134948730469	-388.3738098144531	2139.68994140625	1041.861694335938	-224.9197387695312	2030.634765625	944.4561767578124	-526.1535034179688	2046.83984375	952.1464233398438	-185.8036499023438	1990.81884765625	1090.947509765625	-368.3686828613281	2105.464599609375	769.0752563476562	-491.381103515625	1733.802001953125	336.20654296875	-429.3444213867188	2029.179931640625	786.6547241210938	-525.356201171875	2071.179931640625	674.4237670898438	-470.9116516113281	2299.598388671875	136.1341552734375	-206.1995544433594	1790.957763671875	412.7669372558594	-471.1770629882812	1992.730712890625	696.5978393554688	-497.0520935058594	2221.319091796875	890.0950317382812	-213.9819641113281	1825.32861328125	49.00321960449219	-393.363037109375	2159.896484375	847.1060791015625	-183.3047485351562	2278.7666015625	805.4663696289062	-216.0282745361328	2212.32373046875	762.5269775390625	-195.7826690673828	1965.590698242188	545.677490234375	-456.5485534667969	2309.0712890625	624.7843017578125	-228.5641937255859	1858.230590820312	362.0578918457031	-460.4920349121094	1792.19091796875	284.7489318847656	-454.8286743164062	2266.0634765625	436.7860107421875	-211.9712371826172	1753.699340820312	60.85919570922852	-460.975830078125	2189.149169921875	457.0973510742188	-231.6597137451172	1625.502563476562	180.3789978027344	-362.7803344726562	2245.25	338.9991455078125	-227.3916320800781	2170.95654296875	359.8741760253906	-254.9650421142578	1698.820678710938	206.3958129882812	-444.4775695800781	2181.83984375	217.3856658935547	-233.1894683837891	2368.752685546875	149.6454162597656	-274.3939208984375	2117.371337890625	186.4712677001953	-282.4698486328125	2132.07275390625	156.2642974853516	-312.7388916015625	2116.478759765625	155.4946594238281	-258.6314086914062	1617.4150390625	178.9564056396484	-415.5268249511719
276	1.375	2196.945068359375	1529.58544921875	-543.7918090820312	2109.666259765625	1535.51123046875	-229.7168579101562	2133.617431640625	1055.81005859375	-513.4305419921875	2120.4814453125	1093.84619140625	-217.9853057861328	2174.789794921875	1015.005798339844	-485.3640441894531	1647.397827148438	218.6705474853516	-388.8767395019531	2157.14990234375	1045.019409179688	-224.8247222900391	2047.604370117188	948.2855224609376	-526.1182250976562	2064.581298828125	955.4147338867188	-185.8276062011719	2008.6279296875	1094.591064453125	-368.1894836425781	2119.681396484375	772.0177612304688	-493.2903442382812	1744.289184570312	342.0219116210938	-429.7092895507812	2043.42333984375	791.2782592773438	-525.49853515625	2083.57763671875	676.8032836914062	-471.7850036621094	2336.276123046875	136.2835540771484	-205.4651641845703	1800.673950195312	418.4707641601562	-471.9347229003906	2005.868286132812	701.306396484375	-498.2709655761719	2238.54833984375	892.3670654296875	-213.4524383544922	1828.94482421875	47.88125991821289	-394.4288024902344	2176.607421875	849.7479248046875	-184.0750732421875	2294.875244140625	807.3032836914062	-216.2071380615234	2228.27783203125	764.6030883789062	-197.3632354736328	1977.005493164062	550.56591796875	-458.1671447753906	2323.34814453125	625.7744750976562	-229.2345581054688	1868.26123046875	367.5203247070312	-462.2786865234375	1802.288330078125	290.3117065429688	-457.609130859375	2288.29248046875	435.1386108398438	-211.7370452880859	1756.466552734375	63.25715255737305	-460.6692810058594	2210.647216796875	452.4692687988281	-230.4704895019531	1636.501342773438	191.5082397460938	-362.9459228515625	2271.25244140625	336.7633361816406	-226.0097808837891	2196.73291015625	354.7059631347656	-254.2037658691406	1709.222900390625	212.9219665527344	-446.0369262695312	2214.5458984375	212.0518798828125	-232.2567749023438	2404.242919921875	152.9848785400391	-274.0098571777344	2151.53076171875	178.3608551025391	-281.7442626953125	2167.16259765625	148.6807861328125	-312.0352172851562	2151.875732421875	147.6788940429688	-257.2782592773438	1627.871459960938	190.0192718505859	-415.8086853027344
277	1.38	2213.8583984375	1533.772338867188	-542.5484008789062	2125.220458984375	1538.529296875	-229.536865234375	2151.647216796875	1058.821533203125	-513.1361694335938	2138.6025390625	1096.704345703125	-217.8456573486328	2192.763671875	1017.734252929688	-485.1819458007812	1660.271240234375	228.9993133544922	-389.5428466796875	2174.968994140625	1047.575073242188	-224.4267730712891	2064.57958984375	952.3760986328124	-526.0742797851562	2081.614990234375	957.6104125976562	-186.574951171875	2026.868774414062	1097.721313476562	-368.2068176269531	2134.168212890625	775.2345581054688	-494.5483093261719	1755.116577148438	347.4496765136719	-430.2377319335938	2057.692626953125	795.8385620117188	-526.6402587890625	2096.59033203125	680.1602172851562	-473.8385925292969	2371.953125	136.9360504150391	-205.3244323730469	1811.709716796875	424.0862426757812	-472.2764282226562	2019.274047851562	706.1188354492188	-498.8890686035156	2255.78271484375	893.8652954101562	-213.0067901611328	1832.81689453125	47.09921264648438	-395.8016357421875	2193.1982421875	851.0784301757812	-184.7208099365234	2311.375732421875	808.2937622070312	-216.5751800537109	2243.640380859375	765.7837524414062	-198.6092681884766	1988.622924804688	555.2689208984375	-460.0400695800781	2337.990478515625	626.601318359375	-229.2018127441406	1879.077880859375	372.9986267089844	-463.6898498535156	1812.837280273438	296.4470520019531	-457.4717407226562	2310.4306640625	433.7621765136719	-211.0566101074219	1760.451293945312	66.85871887207031	-460.8738708496094	2231.87353515625	447.6891479492188	-229.200439453125	1648.967041015625	203.1220703125	-363.3037414550781	2297.841796875	334.7685241699219	-225.5625915527344	2222.331787109375	349.4166870117188	-253.1357269287109	1719.82421875	219.8572998046875	-447.8245544433594	2247.101806640625	207.1256256103516	-231.3438568115234	2439.079833984375	156.4333190917969	-274.61328125	2185.111328125	169.9853820800781	-280.6424255371094	2201.68798828125	140.3529357910156	-310.6180725097656	2187.2158203125	139.5414276123047	-256.9445190429688	1639.2353515625	201.5883483886719	-416.2508239746094
